# xmcd
#
# Track frame offsets: 
#        150
#        19155
#        30413
#        44941
#        61376
#        75936
#        88821
#        101307
#        113998
#        125737
#        139352
#        151021
#        165020
#
# Disc length: 2439 seconds
#
# Revision: 0
# Processed by: cddbd v1.5.2PL0 Copyright (c) Steve Scherf et al.
# Submitted via: ExactAudioCopy v0.95b4
#
DISCID=9e09850d
DTITLE=Steve Gardner, Washboard Chaz, The Jake Leg Stompers and Friend
DTITLE=s - Walkin' The Dog
DYEAR=2009
DGENRE=Blues
TTITLE0=Walkin' The Dog
TTITLE1=Ain't That Lovin' You Baby
TTITLE2=Diggin' My Potatoes
TTITLE3=Freight Train
TTITLE4=Midnight Special
TTITLE5=Jesus On The Mainline
TTITLE6=Sitting On Top Of The World
TTITLE7=Dark Town Strutter's Ball
TTITLE8=Bad Luck Blues
TTITLE9=Mean Old Frisco
TTITLE10=High Steppin' To New Orleans
TTITLE11=Help Me
TTITLE12=Glory, Glory, Hallelujah
EXTD=
EXTT0=
EXTT1=
EXTT2=
EXTT3=
EXTT4=
EXTT5=
EXTT6=
EXTT7=
EXTT8=
EXTT9=
EXTT10=
EXTT11=
EXTT12=
PLAYORDER=
